<svg width="24" height="25" viewBox="0 0 24 25" fill="none" xmlns="http://www.w3.org/2000/svg">
<path d="M22 7.74002C22.0008 7.60841 21.9756 7.47795 21.9258 7.35611C21.876 7.23427 21.8027 7.12346 21.71 7.03002L17.47 2.79002C17.3766 2.69734 17.2658 2.62401 17.1439 2.57425C17.0221 2.52448 16.8916 2.49926 16.76 2.50002C16.6284 2.49926 16.4979 2.52448 16.3761 2.57425C16.2543 2.62401 16.1435 2.69734 16.05 2.79002L13.22 5.62002L2.29002 16.55C2.19734 16.6435 2.12401 16.7543 2.07425 16.8761C2.02448 16.9979 1.99926 17.1284 2.00002 17.26V21.5C2.00002 21.7652 2.10537 22.0196 2.29291 22.2071C2.48045 22.3947 2.7348 22.5 3.00002 22.5H7.24002C7.37994 22.5076 7.51991 22.4857 7.65084 22.4358C7.78176 22.3858 7.90073 22.3089 8.00002 22.21L18.87 11.28L21.71 8.50002C21.8013 8.4031 21.8757 8.29155 21.93 8.17002C21.9397 8.09031 21.9397 8.00973 21.93 7.93002C21.9347 7.88347 21.9347 7.83657 21.93 7.79002L22 7.74002ZM6.83002 20.5H4.00002V17.67L13.93 7.74002L16.76 10.57L6.83002 20.5ZM18.17 9.16002L15.34 6.33002L16.76 4.92002L19.58 7.74002L18.17 9.16002Z" fill="white"/>
</svg>
